<svg xmlns="http://www.w3.org/2000/svg" viewBox="0 0 400 480"><defs><linearGradient id="fabric" x1="0" y1="0" x2="1" y2="1"><stop stop-color="#d8cbb3"/><stop offset="1" stop-color="#d8cbb3" stop-opacity=".83"/></linearGradient><pattern id="weave" width="6" height="6" patternUnits="userSpaceOnUse"><path d="M0 1H6M1 0V6" stroke="#fff" stroke-opacity=".13" stroke-width=".5"/></pattern></defs><g fill="url(#fabric)" stroke-linejoin="round"><path d="M87 22Q200 34 313 22L322 157 303 464 218 464 200 194 182 464 97 464 78 157Z"/><path d="M88 48Q200 61 312 48M200 54V194M92 78Q140 84 136 124M308 78Q260 84 264 124M102 437H181M219 437H297" fill="none" stroke="#453f3b" stroke-opacity=".22" stroke-width="4"/><circle cx="200" cy="41" r="5" fill="#61594e"/></g></svg>